<svg version="1.1" xmlns="http://www.w3.org/2000/svg" xmlns:xlink="http://www.w3.org/1999/xlink" width="166.71591" height="141.68445" viewBox="0,0,166.71591,141.68445"><g transform="translate(-153.94956,-91.50305)"><g data-paper-data="{&quot;isPaintingLayer&quot;:true}" fill="none" fill-rule="nonzero" stroke="none" stroke-width="none" stroke-linecap="none" stroke-linejoin="miter" stroke-miterlimit="10" stroke-dasharray="" stroke-dashoffset="0" font-family="none" font-weight="none" font-size="none" text-anchor="none" style="mix-blend-mode: normal"><g data-paper-data="{&quot;origPos&quot;:null,&quot;origRot&quot;:0}"><path d="M168.16498,153.85698l52.62154,45.12177" fill="none" stroke="#000b48" stroke-width="5" stroke-linecap="round"/><path d="M166.5686,158.47809c0.88483,1.01351 1.94162,2.22226 1.91673,3.42579c-0.02274,1.09977 -0.04567,2.23451 -0.40085,3.2756c-0.752,2.20424 -5.4989,2.58218 -7.03991,2.34434c-0.83298,-0.12856 -5.52124,-6.59864 -6.01753,-7.23339c-1.65563,-2.11759 -1.48575,-8.87394 1.08596,-10.4228c0.78016,-0.46986 1.78897,-0.16508 2.71491,0.179c0.8782,-3.11186 5.75189,-5.74887 8.0567,-7.55087c3.28863,-2.5712 5.98067,-4.0543 9.95297,-4.74825l-0.00392,-0.03168l2.35544,-0.29155c0.70797,-0.10016 1.44849,0.17006 1.92053,0.77381c0.54666,0.6992 0.57235,1.63994 0.13431,2.35462l-0.53554,0.92092c0.28637,1.55824 -3.49535,3.15742 -4.46777,3.49311c-1.12464,0.38825 -2.04532,1.16296 -2.98792,1.95878c0.80618,-0.11678 1.61003,-0.20251 2.40159,-0.26278c1.91903,-0.1461 3.64656,-0.84804 5.56503,-0.93895c0.34423,-0.01631 0.86325,-0.32029 1.03364,-0.02075c2.35833,4.14609 1.57839,4.55259 -1.56966,6.2888c-3.90503,1.13588 -7.38438,1.71232 -10.8996,3.93418c-1.11968,0.70771 -2.16816,1.68576 -3.21513,2.55206zM161.81454,151.1349c-0.03447,-0.02368 -0.03535,-0.01529 -0.01331,0.01549z" data-paper-data="{&quot;origPos&quot;:null,&quot;origRot&quot;:0}" fill="#000b48" stroke="none" stroke-width="0.5" stroke-linecap="butt"/></g><path d="M238.25,99.875l-75,130h153z" data-paper-data="{&quot;origPos&quot;:null}" fill="#dcdcdc" stroke="#000b48" stroke-width="5" stroke-linecap="round"/><path d="M241.25,149.54167v38" data-paper-data="{&quot;origPos&quot;:null}" fill="none" stroke="#000b48" stroke-width="5" stroke-linecap="round"/><path d="M238.75,198.54167c0,-1.38071 1.11929,-2.5 2.5,-2.5c1.38071,0 2.5,1.11929 2.5,2.5c0,1.38071 -1.11929,2.5 -2.5,2.5c-1.38071,0 -2.5,-1.11929 -2.5,-2.5z" data-paper-data="{&quot;origPos&quot;:null}" fill="#000b48" stroke="none" stroke-width="0.5" stroke-linecap="butt"/><path d="M274.41984,100.1427c37.70291,22.20448 12.11994,52.51009 12.11994,52.51009l-61.72332,-38.11617c0,0 16.1072,-34.12092 49.60338,-14.39392z" data-paper-data="{&quot;origPos&quot;:null}" fill="#f0f0f0" stroke="#000b48" stroke-width="5" stroke-linecap="butt"/><path d="M282.66058,106.18962l-15.84605,25.66026" fill="none" stroke="#000b48" stroke-width="5" stroke-linecap="round"/><path d="M253.37239,122.59092l14.98951,-24.27321" fill="none" stroke="#000b48" stroke-width="5" stroke-linecap="round"/><path d="M300.67544,162.34002c0,0 -25.96861,-12.2045 -41.93727,-22.06567c-13.80342,-8.52406 -34.34997,-25.0442 -34.34997,-25.0442" data-paper-data="{&quot;origPos&quot;:null}" fill="none" stroke="#000b48" stroke-width="5" stroke-linecap="round"/><path d="M280.41667,170.29167l7.66667,13.33334" data-paper-data="{&quot;origPos&quot;:null}" fill="none" stroke="#dcdcdc" stroke-width="6.5" stroke-linecap="round"/><path d="M297.08333,198.625l1.33333,1.66666" data-paper-data="{&quot;origPos&quot;:null}" fill="none" stroke="#dcdcdc" stroke-width="6.5" stroke-linecap="round"/><path d="M213.125,229.9375h7.5" data-paper-data="{&quot;origPos&quot;:null}" fill="none" stroke="#dcdcdc" stroke-width="6.5" stroke-linecap="round"/><path d="M238.125,229.4375h24" data-paper-data="{&quot;origPos&quot;:null}" fill="none" stroke="#dcdcdc" stroke-width="6.5" stroke-linecap="round"/><path d="M224.125,229.9375h12" data-paper-data="{&quot;origPos&quot;:null}" fill="none" stroke="#000b48" stroke-width="5" stroke-linecap="round"/><path d="M186.625,229.9375h24.5" data-paper-data="{&quot;origPos&quot;:null}" fill="none" stroke="#000b48" stroke-width="5" stroke-linecap="round"/><path d="M291.125,229.9375h-26.5" data-paper-data="{&quot;origPos&quot;:null}" fill="none" stroke="#000b48" stroke-width="5" stroke-linecap="round"/><path d="M308.95833,217.77083l-9,-14.5" data-paper-data="{&quot;origPos&quot;:null}" fill="none" stroke="#000b48" stroke-width="5" stroke-linecap="round"/><path d="M290.29167,186.10417l5.5,9.5" data-paper-data="{&quot;origPos&quot;:null}" fill="none" stroke="#000b48" stroke-width="5" stroke-linecap="round"/><path d="M265.125,145.4375l14.5,23.5" data-paper-data="{&quot;origPos&quot;:null}" fill="none" stroke="#000b48" stroke-width="5" stroke-linecap="round"/></g></g></svg>